# xmcd CD database file
#
# Track frame offsets:
#	150
#	14299
#	32809
#	48728
#	64215
#	77582
#	92486
#	109346
#	125475
#	140986
#	154749
#	170679
#	185782
#	202308
#	218380
#	241269
#	255775
#	272261
#	285240
#	308385
#
# Disc length: 4367 seconds
#
# Revision: 0
# Processed by: cddbd v1.5.2PL0 Copyright (c) Steve Scherf et al.
# Submitted via: CDex 1.51
#
DISCID=16110d14
DTITLE=João Bosco e Vinicius - João Bosco e Vinicius
DYEAR=2008
DGENRE=Country
TTITLE0=João Bosco e Vinicius - Sufoco
TTITLE1=João Bosco e Vinicius - Meu Ex Amor - Deixa eu Chorar
TTITLE2=João Bosco e Vinicius - Querendo Te Encontrar
TTITLE3=João Bosco e Vinicius - Não da Pra Continuar
TTITLE4=João Bosco e Vinicius - Só Fazendo Amor
TTITLE5=João Bosco e Vinicius - Não é Mais Como Antes
TTITLE6=João Bosco e Vinicius - Vou Doar Meu Coração
TTITLE7=João Bosco e Vinicius - Coração Idiota
TTITLE8=João Bosco e Vinicius - Sofrendo Por Amor
TTITLE9=João Bosco e Vinicius - O Fora
TTITLE10=João Bosco e Vinicius - Vem Me Amar
TTITLE11=João Bosco e Vinicius - Parece Castigo
TTITLE12=João Bosco e Vinicius - Mania de Me Enganar
TTITLE13=João Bosco e Vinicius - Quero Um Beijo
TTITLE14=João Bosco e Vinicius - Preciso Amar de Novo
TTITLE15=João Bosco e Vinicius - Ah É
TTITLE16=João Bosco e Vinicius - Chora Peito Chora
TTITLE17=João Bosco e Vinicius - To Falando, Ta Teimando
TTITLE18=João Bosco e Vinicius - Faz de Conta Que Sou Ele, Amor Me Pegou
TTITLE19=João Bosco e Vinicius - Quero Provar Que Te Amo
EXTD=YEAR: 2008
EXTT0=
EXTT1=
EXTT2=
EXTT3=
EXTT4=
EXTT5=
EXTT6=
EXTT7=
EXTT8=
EXTT9=
EXTT10=
EXTT11=
EXTT12=
EXTT13=
EXTT14=
EXTT15=
EXTT16=
EXTT17=
EXTT18=
EXTT19=
PLAYORDER=
